<svg width="24" height="24" viewBox="0 0 24 24" fill="none" xmlns="http://www.w3.org/2000/svg">
<path d="M16.4802 10.4102C16.0902 10.8002 15.4402 10.8002 15.0502 10.4102L10.5802 5.95021L3.53018 12.9902L2.87018 12.3602C1.70018 11.1902 1.70018 9.29021 2.87018 8.12021L7.11018 3.88021C8.28018 2.71021 10.1802 2.71021 11.3502 3.88021L16.4802 9.00021C16.8702 9.39021 16.8702 10.0202 16.4802 10.4102ZM17.1802 8.29021C17.9602 9.07021 17.9602 10.3402 17.1802 11.1202C15.9102 12.3902 14.5702 11.3402 14.3502 11.1202L10.5902 7.36021L5.02018 12.9302C4.63018 13.3202 4.63018 13.9502 5.02018 14.3402C5.41018 14.7302 6.04018 14.7302 6.44018 14.3402L11.0602 9.72021L11.7702 10.4302L7.15018 15.0502C6.76018 15.4402 6.76018 16.0702 7.15018 16.4602C7.54018 16.8502 8.17018 16.8502 8.57018 16.4602L13.1902 11.8402L13.9002 12.5502L9.28018 17.1702C8.89018 17.5602 8.89018 18.1902 9.28018 18.5802C9.67018 18.9702 10.3002 18.9702 10.6902 18.5802L15.3102 13.9602L16.0202 14.6702L11.4002 19.2902C11.0102 19.6802 11.0102 20.3102 11.4002 20.7002C11.7902 21.0902 12.4202 21.0902 12.8102 20.7002L21.1302 12.3602C22.3002 11.1902 22.3002 9.29021 21.1302 8.12021L16.8902 3.88021C15.7402 2.73021 13.8802 2.71021 12.7102 3.82021L17.1802 8.29021Z" fill="white"/>
</svg>
