<svg width="24" height="24" viewBox="0 0 24 24" fill="none" xmlns="http://www.w3.org/2000/svg">
<path d="M16.4801 10.41C16.0901 10.8 15.4401 10.8 15.0501 10.41L10.5801 5.95002L3.53005 12.99L2.87005 12.36C1.70005 11.19 1.70005 9.29002 2.87005 8.12002L7.11005 3.88002C8.28005 2.71002 10.1801 2.71002 11.3501 3.88002L16.4801 9.00002C16.8701 9.39002 16.8701 10.02 16.4801 10.41ZM17.1801 8.29002C17.9601 9.07002 17.9601 10.34 17.1801 11.12C15.9101 12.39 14.5701 11.34 14.3501 11.12L10.5901 7.36002L5.02005 12.93C4.63005 13.32 4.63005 13.95 5.02005 14.34C5.41005 14.73 6.04005 14.73 6.44005 14.34L11.0601 9.72002L11.7701 10.43L7.15005 15.05C6.76005 15.44 6.76005 16.07 7.15005 16.46C7.54005 16.85 8.17005 16.85 8.57005 16.46L13.1901 11.84L13.9001 12.55L9.28005 17.17C8.89005 17.56 8.89005 18.19 9.28005 18.58C9.67005 18.97 10.3001 18.97 10.6901 18.58L15.3101 13.96L16.0201 14.67L11.4001 19.29C11.0101 19.68 11.0101 20.31 11.4001 20.7C11.7901 21.09 12.4201 21.09 12.8101 20.7L21.1301 12.36C22.3001 11.19 22.3001 9.29002 21.1301 8.12002L16.8901 3.88002C15.7401 2.73002 13.8801 2.71002 12.7101 3.82002L17.1801 8.29002Z" fill="#666666"/>
</svg>
