<svg width="21" height="21" viewBox="0 0 21 21" fill="none" xmlns="http://www.w3.org/2000/svg">
<path d="M4.75 15.75L4.75 12.75M9.75 15.75L9.75 6.75M14.75 15.75V11.75" stroke="#141B34" stroke-width="1.5" stroke-linecap="round"/>
<path d="M19.75 3.75C19.75 5.40685 18.4069 6.75 16.75 6.75C15.0931 6.75 13.75 5.40685 13.75 3.75C13.75 2.09315 15.0931 0.75 16.75 0.75C18.4069 0.75 19.75 2.09315 19.75 3.75Z" stroke="#141B34" stroke-width="1.5"/>
<path d="M19.7455 9.25C19.7455 9.25 19.75 9.58953 19.75 10.25C19.75 14.7284 19.75 16.9675 18.3588 18.3588C16.9675 19.75 14.7283 19.75 10.25 19.75C5.77166 19.75 3.53249 19.75 2.14124 18.3588C0.75 16.9675 0.75 14.7284 0.75 10.25C0.75 5.77169 0.75 3.53252 2.14124 2.14127C3.53249 0.750031 5.77166 0.750031 10.25 0.750031L11.25 0.75" stroke="#141B34" stroke-width="1.5" stroke-linecap="round" stroke-linejoin="round"/>
</svg>
