<svg width="24" height="24" viewBox="0 0 24 24" fill="none" xmlns="http://www.w3.org/2000/svg">
<path d="M10 7.77778V6" stroke="#666666" stroke-width="1.5" stroke-linecap="round" stroke-linejoin="round"/>
<path d="M16 22C16 18.5636 13.3137 15.7778 10 15.7778C6.68629 15.7778 4 18.5636 4 22" stroke="#666666" stroke-width="1.5" stroke-linecap="round" stroke-linejoin="round"/>
<path d="M7.85718 10.8889H7.86573M12.1343 10.8889H12.1429" stroke="#666666" stroke-width="2" stroke-linecap="round" stroke-linejoin="round"/>
<path d="M4.42859 10.1481C4.42859 9.59705 4.42859 9.3215 4.487 9.09543C4.64552 8.48193 5.1076 8.00273 5.69918 7.83835C5.91718 7.77777 6.18289 7.77777 6.7143 7.77777H13.2857C13.8171 7.77777 14.0829 7.77777 14.3009 7.83835C14.8924 8.00273 15.3545 8.48193 15.513 9.09543C15.5714 9.3215 15.5714 9.59705 15.5714 10.1481C15.5714 11.2503 15.5714 11.8014 15.4546 12.2536C15.1376 13.4806 14.2134 14.439 13.0303 14.7677C12.5943 14.8889 12.0628 14.8889 11 14.8889H9.00002C7.93719 14.8889 7.40578 14.8889 6.96978 14.7677C5.78661 14.439 4.86244 13.4806 4.54541 12.2536C4.42859 11.8014 4.42859 11.2503 4.42859 10.1481Z" stroke="#666666" stroke-width="1.5" stroke-linecap="round" stroke-linejoin="round"/>
<path d="M17.6627 2.22954C17.7834 1.92349 18.2166 1.92349 18.3373 2.22954L18.6788 3.0956C18.9 3.65624 19.3438 4.10004 19.9044 4.32115L20.7705 4.66272C21.0765 4.78343 21.0765 5.21657 20.7705 5.33728L19.9044 5.67885C19.3438 5.89996 18.9 6.34376 18.6788 6.9044L18.3373 7.77046C18.2166 8.07651 17.7834 8.07651 17.6627 7.77046L17.3212 6.9044C17.1 6.34376 16.6562 5.89996 16.0956 5.67885L15.2295 5.33728C14.9235 5.21657 14.9235 4.78343 15.2295 4.66272L16.0956 4.32115C16.6562 4.10004 17.1 3.65624 17.3212 3.0956L17.6627 2.22954Z" fill="#666666" stroke="#666666" stroke-width="1.5"/>
</svg>
