<svg width="40" height="40" viewBox="0 0 40 40" fill="none" xmlns="http://www.w3.org/2000/svg">
<path d="M28.8745 14.6248C28.8745 15.3664 28.6546 16.0915 28.2426 16.7081C27.8305 17.3248 27.2449 17.8054 26.5597 18.0893C25.8745 18.3731 25.1205 18.4473 24.3931 18.3027C23.6657 18.158 22.9976 17.8008 22.4732 17.2764C21.9487 16.7519 21.5916 16.0838 21.4469 15.3564C21.3022 14.6289 21.3765 13.875 21.6603 13.1897C21.9441 12.5045 22.4247 11.9189 23.0414 11.5068C23.6581 11.0948 24.3831 10.8749 25.1247 10.8749C26.1192 10.8749 27.073 11.2699 27.7762 11.9732C28.4795 12.6764 28.8745 13.6302 28.8745 14.6248ZM26.8631 28.444C26.57 29.5964 26.1536 30.7138 25.6212 31.777C24.638 33.6363 23.1618 35.1889 21.3543 36.2645C19.5469 37.3401 17.4782 37.897 15.3751 37.8743H13.8752V30.589C13.848 29.3472 13.3426 28.1637 12.4643 27.2854C11.5861 26.4071 10.4027 25.9017 9.16086 25.8746H1.87567V24.3746C1.85296 22.2714 2.40994 20.2027 3.48549 18.3952C4.56105 16.5878 6.11363 15.1115 7.97291 14.1283C9.03605 13.5958 10.1534 13.1794 11.3058 12.8863C16.815 5.44496 23.2063 2.14202 32.5614 1.87503H32.6244C33.3209 1.87272 34.0109 2.00949 34.6539 2.27731C35.2969 2.54512 35.8799 2.93861 36.3689 3.43469C36.8578 3.93077 37.2428 4.51947 37.5013 5.16628C37.7598 5.81309 37.8866 6.50499 37.8742 7.20143C37.6042 16.6902 34.4033 22.8746 26.8631 28.444ZM33.3744 7.13693C33.3776 6.93979 33.3031 6.7493 33.1669 6.6067C33.0308 6.46409 32.844 6.38083 32.6469 6.37494C24.4557 6.61794 19.3889 9.32388 14.5906 16.0213C13.3465 17.8027 12.2404 19.6766 11.2818 21.6266C12.9337 22.0427 14.442 22.8985 15.6466 24.1031C16.8511 25.3077 17.7069 26.8161 18.123 28.468C20.0731 27.5097 21.947 26.4035 23.7283 25.1591C30.4375 20.3502 33.1434 15.2983 33.3744 7.13693ZM4.32207 29.9665C3.16111 31.1245 2.44564 34.6209 2.19215 36.0744L1.87567 37.8743L3.67559 37.5563C5.11703 37.3013 8.59239 36.5829 9.75334 35.4189C10.4728 34.694 10.8766 33.714 10.8766 32.6927C10.8766 31.6713 10.4728 30.6914 9.75334 29.9665C9.02332 29.265 8.05015 28.8732 7.0377 28.8732C6.02526 28.8732 5.05209 29.265 4.32207 29.9665Z" fill="white"/>
</svg>
